<svg width="800.0000000000001" height="600" xmlns="http://www.w3.org/2000/svg" xml:space="preserve">
 <g>
  <rect x="0" width="809" height="600" style="fill: rgb(255, 255, 255);"/>
  <title>Layer 1</title>
  <line stroke-width="3" x1="17" x2="17" stroke-linecap="undefined" stroke-linejoin="undefined" id="svg_2" y2="585.5" y1="20" stroke="#000" fill="none"/>
  <line stroke-width="3" stroke-linecap="undefined" stroke-linejoin="undefined" id="svg_3" y2="584" x2="770" y1="584.37494" x1="14.99995" stroke="#000" fill="none"/>
  <path stroke="#56aaff" id="svg_4" d="m70,20l0,563.74994" opacity="undefined" stroke-linecap="undefined" stroke-linejoin="undefined" fill="#56aaff"/>
  <path stroke="#56aaff" id="svg_14" d="m170,20l0,563.74994" opacity="undefined" stroke-linecap="undefined" stroke-linejoin="undefined" fill="#56aaff"/>
  <path stroke="#56aaff" id="svg_15" d="m120,20l0,563.74994" opacity="undefined" stroke-linecap="undefined" stroke-linejoin="undefined" fill="#56aaff"/>
  <path stroke="#56aaff" id="svg_16" d="m220,20l0,563.74994" opacity="undefined" stroke-linecap="undefined" stroke-linejoin="undefined" fill="#56aaff"/>
  <path stroke="#56aaff" id="svg_17" d="m270,20l0,563.74994" opacity="undefined" stroke-linecap="undefined" stroke-linejoin="undefined" fill="#56aaff"/>
  <path stroke="#56aaff" id="svg_18" d="m320,20l0,563.74994" opacity="undefined" stroke-linecap="undefined" stroke-linejoin="undefined" fill="#56aaff"/>
  <path stroke="#56aaff" id="svg_19" d="m370,20l0,563.74994" opacity="undefined" stroke-linecap="undefined" stroke-linejoin="undefined" fill="#56aaff"/>
  <path stroke="#56aaff" id="svg_20" d="m420,20l0,563.74994" opacity="undefined" stroke-linecap="undefined" stroke-linejoin="undefined" fill="#56aaff"/>
  <path stroke="#56aaff" id="svg_21" d="m470,20l0,563.74994" opacity="undefined" stroke-linecap="undefined" stroke-linejoin="undefined" fill="#56aaff"/>
  <path stroke="#56aaff" id="svg_22" d="m520,20l0,563.74994" opacity="undefined" stroke-linecap="undefined" stroke-linejoin="undefined" fill="#56aaff"/>
  <path stroke="#56aaff" id="svg_23" d="m570,20l0,563.74994" opacity="undefined" stroke-linecap="undefined" stroke-linejoin="undefined" fill="#56aaff"/>
  <path stroke="#56aaff" id="svg_24" d="m620,20l0,563.74994" opacity="undefined" stroke-linecap="undefined" stroke-linejoin="undefined" fill="#56aaff"/>
  <path stroke="#56aaff" id="svg_25" d="m670,20l0,563.74994" opacity="undefined" stroke-linecap="undefined" stroke-linejoin="undefined" fill="#56aaff"/>
  <path stroke="#56aaff" id="svg_26" d="m720,20l0,563.74994" opacity="undefined" stroke-linecap="undefined" stroke-linejoin="undefined" fill="#56aaff"/>
  <path stroke="#56aaff" id="svg_27" d="m770,20l0,563.74994" opacity="undefined" stroke-linecap="undefined" stroke-linejoin="undefined" fill="#56aaff"/>
  <line stroke="#56aaff" stroke-linecap="undefined" stroke-linejoin="undefined" id="svg_28" y2="542" x2="770" y1="542" x1="18" fill="none"/>
  <line stroke="#56aaff" stroke-linecap="undefined" stroke-linejoin="undefined" id="svg_29" y2="490" x2="770" y1="490" x1="18" fill="none"/>
  <line stroke="#56aaff" stroke-linecap="undefined" stroke-linejoin="undefined" id="svg_30" y2="440" x2="770" y1="440" x1="18" fill="none"/>
  <line stroke="#56aaff" stroke-linecap="undefined" stroke-linejoin="undefined" id="svg_31" y2="390" x2="770" y1="390" x1="18" fill="none"/>
  <line stroke="#56aaff" stroke-linecap="undefined" stroke-linejoin="undefined" id="svg_32" y2="340" x2="770" y1="340" x1="18" fill="none"/>
  <line stroke="#56aaff" stroke-linecap="undefined" stroke-linejoin="undefined" id="svg_33" y2="290" x2="770" y1="290" x1="18" fill="none"/>
  <line stroke="#56aaff" stroke-linecap="undefined" stroke-linejoin="undefined" id="svg_34" y2="240" x2="770" y1="240" x1="18" fill="none"/>
  <line stroke="#56aaff" stroke-linecap="undefined" stroke-linejoin="undefined" id="svg_35" y2="190" x2="770" y1="190" x1="18" fill="none"/>
  <line stroke="#56aaff" stroke-linecap="undefined" stroke-linejoin="undefined" id="svg_36" y2="140" x2="770" y1="140" x1="18" fill="none"/>
  <line stroke="#56aaff" stroke-linecap="undefined" stroke-linejoin="undefined" id="svg_37" y2="90" x2="770" y1="90" x1="18" fill="none"/>
  <line stroke="#56aaff" stroke-linecap="undefined" stroke-linejoin="undefined" id="svg_38" y2="40" x2="770" y1="40" x1="18" fill="none"/>
 </g>

</svg>